<svg width="25" height="34" viewBox="0 0 25 34" fill="none" xmlns="http://www.w3.org/2000/svg">
<path d="M24.9569 15.5276C24.8957 15.2641 24.7711 15.0199 24.5941 14.8167C24.417 14.6134 24.193 14.4573 23.9419 14.3623L16.5451 11.5642L18.4473 1.96763C18.5169 1.61664 18.4711 1.25236 18.3169 0.930016C18.1627 0.607675 17.9085 0.344869 17.5929 0.18146C17.2773 0.0180504 16.9175 -0.0370458 16.568 0.0245278C16.2186 0.0861015 15.8986 0.260985 15.6565 0.522653L0.439056 16.974C0.255972 17.1717 0.124054 17.4119 0.0549907 17.6734C-0.0140721 17.9349 -0.0181469 18.2095 0.0431278 18.4729C0.104402 18.7364 0.229135 18.9805 0.40627 19.1837C0.583406 19.3868 0.807477 19.5428 1.05863 19.6377L8.45541 22.4358L6.55322 32.0324C6.48369 32.3834 6.52949 32.7476 6.68369 33.07C6.83788 33.3923 7.09206 33.6551 7.40766 33.8185C7.72327 33.9819 8.08308 34.037 8.43252 33.9755C8.78196 33.9139 9.10197 33.739 9.344 33.4773L24.5615 17.026C24.7444 16.8283 24.8762 16.5881 24.9451 16.3268C25.0141 16.0654 25.0181 15.7909 24.9569 15.5276ZM10.8766 26.9983L11.9255 21.7092C12.0014 21.3261 11.9397 20.9284 11.7515 20.587C11.5633 20.2457 11.2609 19.983 10.8984 19.8461L4.48392 17.4209L14.1212 7.00172L13.0723 12.2908C12.9964 12.6739 13.0581 13.0716 13.2463 13.413C13.4345 13.7543 13.7369 14.017 14.0995 14.1539L20.5166 16.5791L10.8766 26.9983Z" fill="#E680FF"/>
</svg>
