<svg width="30" height="26" viewBox="0 0 30 26" fill="none" xmlns="http://www.w3.org/2000/svg">
<path d="M3.87373 2L26.1263 24.2525M21.2585 19.7408C19.3768 20.7547 17.2503 21.471 15 21.471C10.0905 21.471 5.77354 18.0608 3.29934 15.6005C2.64567 14.951 2.31884 14.6269 2.11161 13.9886C1.9628 13.5338 1.9628 12.7188 2.11161 12.264C2.32023 11.6256 2.64706 11.3002 3.30073 10.6507C4.54826 9.41009 6.2631 7.9303 8.2853 6.76621M25.4309 16.7896C25.894 16.3821 26.3182 15.9802 26.6993 15.6019L26.7034 15.5977C27.3543 14.9496 27.6812 14.6241 27.8884 13.9899C28.0372 13.5352 28.0372 12.7188 27.8884 12.264C27.6798 11.627 27.3543 11.3016 26.7007 10.6521C24.2251 8.19177 19.9109 4.78157 15 4.78157C14.5299 4.78157 14.0668 4.81216 13.6092 4.87058M16.84 15.2124C16.3013 15.6881 15.5994 15.9369 14.8814 15.9065C14.1633 15.8761 13.4849 15.5691 12.9883 15.0496C12.4917 14.5301 12.2154 13.8386 12.2173 13.1199C12.2192 12.4013 12.4992 11.7113 12.9987 11.1945" stroke="#FFDC80" stroke-width="3" stroke-linecap="round" stroke-linejoin="round"/>
</svg>
