<svg width="26" height="26" viewBox="0 0 26 26" fill="none" xmlns="http://www.w3.org/2000/svg">
<path d="M25.545 0.313447C25.4033 0.191847 25.2371 0.1022 25.0576 0.0506072C24.8781 -0.000985441 24.6897 -0.0133128 24.505 0.0144642L7.605 2.61432C7.29724 2.66101 7.01645 2.81657 6.81367 3.05274C6.61089 3.2889 6.49959 3.58998 6.5 3.90124V17.3555C5.8926 17.0588 5.22599 16.9033 4.55 16.9005C3.6501 16.9005 2.7704 17.1673 2.02216 17.6673C1.27391 18.1672 0.690729 18.8778 0.34635 19.7091C0.00197144 20.5405 -0.0881337 21.4553 0.087429 22.3379C0.262992 23.2204 0.696337 24.0311 1.33267 24.6674C1.96899 25.3037 2.77973 25.737 3.66234 25.9126C4.54495 26.0881 5.45981 25.998 6.29121 25.6537C7.12261 25.3093 7.83323 24.7262 8.33319 23.978C8.83315 23.2298 9.1 22.3501 9.1 21.4503V11.5188L23.4 9.32194V14.7556C22.7926 14.459 22.126 14.3034 21.45 14.3007C20.5501 14.3007 19.6704 14.5675 18.9222 15.0674C18.1739 15.5674 17.5907 16.2779 17.2463 17.1093C16.902 17.9406 16.8119 18.8554 16.9874 19.738C17.163 20.6206 17.5963 21.4313 18.2327 22.0676C18.869 22.7038 19.6797 23.1372 20.5623 23.3127C21.445 23.4883 22.3598 23.3982 23.1912 23.0538C24.0226 22.7095 24.7332 22.1263 25.2332 21.3781C25.7331 20.6299 26 19.7503 26 18.8504V1.30139C26 1.11363 25.9593 0.928093 25.8808 0.757547C25.8023 0.587 25.6877 0.435493 25.545 0.313447ZM4.55 23.4001C4.16433 23.4001 3.78732 23.2858 3.46664 23.0715C3.14596 22.8573 2.89603 22.5527 2.74844 22.1964C2.60085 21.8401 2.56223 21.4481 2.63747 21.0699C2.71271 20.6916 2.89843 20.3442 3.17114 20.0715C3.44386 19.7988 3.79131 19.6131 4.16958 19.5378C4.54784 19.4626 4.93992 19.5012 5.29623 19.6488C5.65255 19.7964 5.9571 20.0463 6.17137 20.367C6.38564 20.6876 6.5 21.0646 6.5 21.4503C6.5 21.9674 6.29456 22.4634 5.92886 22.829C5.56316 23.1947 5.06717 23.4001 4.55 23.4001ZM21.45 20.8003C21.0643 20.8003 20.6873 20.6859 20.3666 20.4717C20.046 20.2574 19.796 19.9529 19.6484 19.5966C19.5008 19.2403 19.4622 18.8482 19.5375 18.47C19.6127 18.0918 19.7984 17.7443 20.0711 17.4716C20.3439 17.1989 20.6913 17.0132 21.0696 16.938C21.4478 16.8627 21.8399 16.9014 22.1962 17.0489C22.5525 17.1965 22.8571 17.4464 23.0714 17.7671C23.2856 18.0878 23.4 18.4648 23.4 18.8504C23.4 19.3675 23.1946 19.8635 22.8289 20.2292C22.4632 20.5949 21.9672 20.8003 21.45 20.8003ZM23.4 6.68309L9.1 8.87996V4.98018L23.4 2.82231V6.68309Z" fill="#FF8080"/>
</svg>
