<svg width="28" height="28" viewBox="0 0 28 28" fill="none" xmlns="http://www.w3.org/2000/svg">
<path d="M5.6 5.6L22.4 22.4M2 14C2 15.5759 2.31039 17.1363 2.91345 18.5922C3.5165 20.0481 4.40042 21.371 5.51472 22.4853C6.62902 23.5996 7.95189 24.4835 9.4078 25.0866C10.8637 25.6896 12.4241 26 14 26C15.5759 26 17.1363 25.6896 18.5922 25.0866C20.0481 24.4835 21.371 23.5996 22.4853 22.4853C23.5996 21.371 24.4835 20.0481 25.0866 18.5922C25.6896 17.1363 26 15.5759 26 14C26 12.4241 25.6896 10.8637 25.0866 9.4078C24.4835 7.95189 23.5996 6.62902 22.4853 5.51472C21.371 4.40042 20.0481 3.5165 18.5922 2.91345C17.1363 2.31039 15.5759 2 14 2C12.4241 2 10.8637 2.31039 9.4078 2.91345C7.95189 3.5165 6.62902 4.40042 5.51472 5.51472C4.40042 6.62902 3.5165 7.95189 2.91345 9.4078C2.31039 10.8637 2 12.4241 2 14Z" stroke="#80B8FF" stroke-width="3" stroke-linecap="round" stroke-linejoin="round"/>
</svg>
