<svg width="12" height="12" viewBox="0 0 12 12" fill="none" xmlns="http://www.w3.org/2000/svg">
<path d="M1.53863 0.26404C1.89061 -0.0879436 2.46129 -0.0879436 2.81328 0.26404L11.7358 9.18655C12.0878 9.53853 12.0878 10.1092 11.7358 10.4612L10.4611 11.7358C10.1092 12.0878 9.53848 12.0878 9.18649 11.7358L0.263987 2.81333C-0.0879958 2.46134 -0.0879958 1.89067 0.263987 1.53868L1.53863 0.26404Z" fill="#522020"/>
<path d="M11.736 1.53863C12.088 1.89061 12.088 2.46129 11.736 2.81328L2.81351 11.7358C2.46152 12.0878 1.89085 12.0878 1.53886 11.7358L0.264219 10.4611C-0.0877644 10.1092 -0.0877644 9.53848 0.264219 9.18649L9.18673 0.263987C9.53871 -0.0879958 10.1094 -0.0879958 10.4614 0.263987L11.736 1.53863Z" fill="#522020"/>
</svg>
